<svg width="161" height="126" viewBox="0 0 161 126" fill="none" xmlns="http://www.w3.org/2000/svg">
<path d="M72.2049 29.3359C72.4906 29.3363 72.7733 29.2778 73.0353 29.164C73.2974 29.0503 73.5331 28.8837 73.7278 28.6747L78.4549 23.6087V45.8601C78.4549 46.4126 78.6744 46.9425 79.0651 47.3332C79.4558 47.7239 79.9857 47.9434 80.5383 47.9434C81.0908 47.9434 81.6207 47.7239 82.0114 47.3332C82.4021 46.9425 82.6216 46.4126 82.6216 45.8601V23.6067L87.3488 28.6726C87.5355 28.8726 87.7598 29.0338 88.0089 29.1471C88.258 29.2604 88.5269 29.3236 88.8004 29.3329C89.0739 29.3423 89.3465 29.2977 89.6027 29.2017C89.859 29.1056 90.0938 28.9601 90.2938 28.7734C90.4937 28.5866 90.655 28.3623 90.7683 28.1132C90.8816 27.8641 90.9447 27.5952 90.9541 27.3217C90.9634 27.0483 90.9188 26.7756 90.8228 26.5194C90.7268 26.2632 90.5813 26.0284 90.3945 25.8284L83.0112 17.9162C82.6006 17.488 82.0791 17.1823 81.5049 17.0332C81.213 16.8575 80.8788 16.7646 80.5381 16.7646C80.1974 16.7646 79.8631 16.8575 79.5712 17.0332C78.9993 17.1818 78.4798 17.4861 78.0703 17.9121L70.682 25.8304C70.4048 26.1271 70.2204 26.4984 70.1514 26.8985C70.0824 27.2987 70.1318 27.7102 70.2936 28.0827C70.4554 28.4551 70.7225 28.7721 71.0621 28.9947C71.4017 29.2174 71.7989 29.336 72.2049 29.3359Z" fill="#B3B3B3"/>
<path d="M106.944 57.4603C106.58 57.2629 106.152 57.2182 105.755 57.3361C105.358 57.454 105.024 57.7248 104.826 58.0889L97.1147 72.3163C97.0169 72.4967 96.9556 72.6945 96.9342 72.8985C96.9129 73.1026 96.932 73.3088 96.9904 73.5055C97.0487 73.7022 97.1453 73.8854 97.2745 74.0448C97.4037 74.2041 97.563 74.3365 97.7433 74.4342C97.9237 74.532 98.1215 74.5933 98.3256 74.6147C98.5296 74.636 98.7358 74.6169 98.9325 74.5585C99.1292 74.5002 99.3124 74.4036 99.4718 74.2744C99.6311 74.1452 99.7635 73.9859 99.8612 73.8056L107.573 59.5783C107.671 59.398 107.732 59.2001 107.754 58.996C107.775 58.792 107.756 58.5856 107.698 58.3889C107.639 58.1922 107.543 58.0089 107.414 57.8496C107.284 57.6902 107.125 57.5579 106.944 57.4603Z" fill="#B3B3B3"/>
<path d="M101.523 59.0127C101.343 58.9147 101.145 58.8532 100.941 58.8318C100.737 58.8103 100.531 58.8294 100.334 58.8878C100.137 58.9461 99.954 59.0428 99.7947 59.1721C99.6353 59.3014 99.5031 59.4608 99.4054 59.6413L95.603 66.6584C95.4055 67.0226 95.3608 67.4503 95.4786 67.8475C95.5965 68.2447 95.8674 68.5788 96.2316 68.7763C96.5958 68.9738 97.0236 69.0185 97.4208 68.9006C97.818 68.7827 98.152 68.5118 98.3495 68.1476L102.152 61.1306C102.25 60.9503 102.311 60.7524 102.333 60.5484C102.354 60.3443 102.335 60.138 102.277 59.9413C102.218 59.7446 102.122 59.5613 101.993 59.402C101.863 59.2426 101.704 59.1104 101.523 59.0127Z" fill="#B3B3B3"/>
<path d="M89.9815 58.8075C90.2224 58.9374 90.4866 59.0184 90.759 59.0459C91.0313 59.0734 91.3063 59.0469 91.5684 58.9679C91.8305 58.8889 92.0744 58.7589 92.2861 58.5855C92.4978 58.412 92.6732 58.1985 92.8023 57.9571L103.939 37.1889C104.127 36.8349 104.383 36.5218 104.693 36.2679C105.003 36.0139 105.36 35.8242 105.744 35.7097C106.121 35.5963 106.516 35.5594 106.908 35.6013C107.299 35.6433 107.678 35.7631 108.022 35.9539L129.871 47.9209C130.701 48.3811 131.315 49.1503 131.581 50.0612L134.57 60.3008C134.84 61.2161 134.738 62.2012 134.285 63.0413L117.471 94.3991C117.283 94.7531 117.027 95.0662 116.717 95.3202C116.407 95.5741 116.049 95.7638 115.665 95.8783C115.288 95.9918 114.893 96.0286 114.502 95.9867C114.11 95.9448 113.732 95.8249 113.387 95.6341L97.3697 86.8613C96.8853 86.5971 96.3158 86.5358 95.7862 86.691C95.2566 86.8462 94.8103 87.2052 94.5451 87.6892C94.28 88.1732 94.2177 88.7426 94.3719 89.2724C94.5261 89.8023 94.8843 90.2493 95.3678 90.5153L111.385 99.2881C112.434 99.8662 113.611 100.17 114.809 100.171C116.11 100.169 117.386 99.8147 118.501 99.1451C119.617 98.4755 120.53 97.5159 121.143 96.3686L137.957 65.0107C138.928 63.2089 139.148 61.0964 138.569 59.1331L135.581 48.8935C135.002 46.9233 133.669 45.2609 131.872 44.267L110.023 32.3C109.192 31.8454 108.279 31.5604 107.337 31.4612C106.395 31.3621 105.443 31.4508 104.535 31.7224C103.628 31.9939 102.783 32.4429 102.051 33.0432C101.318 33.6435 100.712 34.3832 100.267 35.2195L89.13 55.9877C88.869 56.4746 88.8121 57.0452 88.9717 57.574C89.1314 58.1028 89.4946 58.5465 89.9815 58.8075Z" fill="#B3B3B3"/>
<path d="M113.546 62.1741C113.365 62.076 113.167 62.0144 112.963 61.993C112.759 61.9715 112.553 61.9905 112.356 62.0489C112.159 62.1073 111.976 62.2039 111.817 62.3333C111.657 62.4626 111.525 62.6222 111.428 62.8027L104.8 75.0301C104.702 75.2105 104.64 75.4086 104.618 75.6129C104.596 75.8172 104.615 76.0239 104.673 76.221C104.732 76.4181 104.828 76.6017 104.957 76.7615C105.087 76.9212 105.246 77.0538 105.427 77.1518C105.608 77.2497 105.806 77.3111 106.01 77.3323C106.215 77.3535 106.421 77.3342 106.618 77.2755C106.815 77.2167 106.998 77.1197 107.158 76.99C107.317 76.8602 107.449 76.7003 107.547 76.5194L114.174 64.292C114.272 64.1117 114.334 63.9139 114.355 63.7098C114.376 63.5057 114.357 63.2994 114.299 63.1027C114.241 62.906 114.144 62.7227 114.015 62.5634C113.885 62.4041 113.726 62.2718 113.546 62.1741Z" fill="#B3B3B3"/>
<path d="M108.632 62.8216C108.268 62.6244 107.84 62.5796 107.443 62.6971C107.046 62.8145 106.712 63.0846 106.513 63.4482L102.714 70.4347C102.615 70.615 102.553 70.813 102.531 71.0174C102.508 71.2217 102.527 71.4285 102.585 71.6257C102.643 71.823 102.739 72.0068 102.868 72.1668C102.997 72.3268 103.157 72.4597 103.337 72.5579C103.518 72.6562 103.716 72.7178 103.92 72.7393C104.125 72.7608 104.331 72.7418 104.528 72.6833C104.726 72.6248 104.909 72.5279 105.069 72.3984C105.228 72.2688 105.361 72.1089 105.458 71.9281L109.258 64.9416C109.356 64.7613 109.418 64.5635 109.439 64.3594C109.461 64.1553 109.442 63.9489 109.384 63.752C109.326 63.5552 109.23 63.3717 109.101 63.212C108.972 63.0524 108.812 62.9197 108.632 62.8216Z" fill="#B3B3B3"/>
<path d="M118.36 61.804C117.996 61.6068 117.568 61.562 117.171 61.6795C116.774 61.7969 116.44 62.0671 116.241 62.4307L107.389 78.7067C107.291 78.8869 107.23 79.0847 107.208 79.2887C107.186 79.4927 107.205 79.699 107.263 79.8957C107.321 80.0925 107.418 80.2759 107.547 80.4354C107.675 80.595 107.835 80.7276 108.015 80.8256C108.195 80.9237 108.393 80.9853 108.597 81.0069C108.801 81.0285 109.007 81.0098 109.204 80.9517C109.401 80.8936 109.584 80.7973 109.744 80.6684C109.903 80.5394 110.036 80.3803 110.134 80.2L118.986 63.924C119.084 63.7437 119.146 63.5459 119.167 63.3418C119.189 63.1377 119.17 62.9313 119.112 62.7344C119.054 62.5376 118.958 62.3541 118.829 62.1944C118.7 62.0348 118.541 61.9022 118.36 61.804Z" fill="#B3B3B3"/>
<path d="M118.736 69.4971C118.556 69.3991 118.358 69.3376 118.154 69.3162C117.95 69.2947 117.743 69.3137 117.547 69.3721C117.35 69.4305 117.167 69.5271 117.007 69.6565C116.848 69.7858 116.716 69.9453 116.618 70.1258L113.726 75.4623C113.628 75.6427 113.566 75.8407 113.544 76.0451C113.522 76.2494 113.541 76.4561 113.599 76.6532C113.657 76.8503 113.754 77.0339 113.883 77.1936C114.012 77.3534 114.172 77.486 114.353 77.584C114.533 77.6819 114.732 77.7433 114.936 77.7645C115.14 77.7857 115.347 77.7664 115.544 77.7077C115.741 77.6489 115.924 77.5519 116.084 77.4221C116.243 77.2924 116.375 77.1325 116.473 76.9516L119.365 71.615C119.463 71.4347 119.524 71.2369 119.545 71.0328C119.567 70.8287 119.548 70.6224 119.489 70.4257C119.431 70.229 119.334 70.0458 119.205 69.8864C119.076 69.7271 118.916 69.5948 118.736 69.4971Z" fill="#B3B3B3"/>
<path d="M116.464 82.1327C116.645 82.2306 116.843 82.292 117.047 82.3134C117.251 82.3348 117.457 82.3158 117.654 82.2574C117.85 82.199 118.034 82.1024 118.193 81.9732C118.352 81.8439 118.485 81.6845 118.582 81.5041L124.365 70.833C124.464 70.6526 124.526 70.4546 124.548 70.2502C124.569 70.0459 124.551 69.8392 124.492 69.6421C124.434 69.4451 124.338 69.2614 124.208 69.1017C124.079 68.9419 123.92 68.8093 123.739 68.7113C123.558 68.6134 123.36 68.552 123.156 68.5308C122.951 68.5096 122.745 68.5289 122.548 68.5876C122.351 68.6464 122.167 68.7434 122.008 68.8732C121.849 69.0029 121.716 69.1628 121.619 69.3437L115.836 80.0147C115.738 80.195 115.676 80.3929 115.655 80.597C115.634 80.801 115.653 81.0073 115.711 81.2041C115.769 81.4008 115.866 81.5841 115.995 81.7434C116.125 81.9028 116.284 82.035 116.464 82.1327Z" fill="#B3B3B3"/>
<path d="M68.4785 55.0967C67.0227 55.532 65.7995 56.5278 65.0779 57.865C64.3563 59.2022 64.1955 60.7713 64.6308 62.2271C65.0661 63.6829 66.0619 64.9062 67.3991 65.6278C68.7363 66.3494 70.3054 66.5102 71.7612 66.0749H71.7633C73.2173 65.6378 74.4383 64.6415 75.1583 63.3047C75.8782 61.968 76.0381 60.4002 75.6029 58.9456C75.1677 57.491 74.1729 56.2687 72.8371 55.547C71.5013 54.8254 69.9337 54.6634 68.4785 55.0967ZM70.867 63.08C70.3735 63.228 69.8472 63.2262 69.3547 63.075C68.8622 62.9237 68.4256 62.6298 68.1002 62.2304C67.7748 61.831 67.5752 61.344 67.5266 60.8311C67.4781 60.3182 67.5827 59.8024 67.8274 59.3489C68.072 58.8955 68.4457 58.5249 68.901 58.2839C69.3564 58.0429 69.873 57.9424 70.3855 57.995C70.898 58.0477 71.3834 58.2513 71.7802 58.5799C72.177 58.9085 72.4674 59.3474 72.6147 59.8411C72.8082 60.5023 72.7333 61.2132 72.4062 61.8196C72.079 62.4259 71.526 62.8788 70.867 63.08Z" fill="#B3B3B3"/>
<path d="M30.7465 99.298C30.9022 99.8211 31.16 100.308 31.5048 100.731C31.8497 101.154 32.275 101.505 32.756 101.763C33.2371 102.021 33.7644 102.181 34.3076 102.234C34.8509 102.288 35.3993 102.233 35.9212 102.073L89.4155 85.9556C90.4684 85.6374 91.3524 84.9149 91.8738 83.9464C92.3952 82.9779 92.5117 81.8422 92.1977 80.788L85.321 57.5479C85.2433 57.2855 85.1146 57.041 84.9424 56.8284C84.7702 56.6157 84.5577 56.4391 84.3172 56.3086C84.0767 56.178 83.8129 56.0961 83.5407 56.0675C83.2686 56.039 82.9935 56.0643 82.7311 56.142C82.4687 56.2198 82.2242 56.3484 82.0116 56.5207C81.7989 56.6929 81.6223 56.9053 81.4918 57.1458C81.3612 57.3863 81.2793 57.6502 81.2507 57.9223C81.2222 58.1945 81.2475 58.4696 81.3252 58.732L87.8115 80.6085L72.4681 71.9686C72.051 71.7384 71.592 71.5943 71.1182 71.5447C70.6444 71.4952 70.1655 71.5412 69.7098 71.68C69.2541 71.8189 68.8309 72.0478 68.4653 72.3532C68.0997 72.6585 67.799 73.0342 67.5812 73.4578L64.1764 80.4606C64.1263 80.5841 64.0927 80.7138 64.0766 80.8461L49.76 74.0234C49.3822 73.8105 48.9654 73.6758 48.5345 73.6272C48.1036 73.5786 47.6673 73.6171 47.2515 73.7405C46.8358 73.8639 46.4491 74.0695 46.1144 74.3453C45.7798 74.6211 45.5039 74.9613 45.3034 75.3458L34.1901 96.2879L24.2686 63.4419L70.225 49.8412C70.4874 49.7636 70.7319 49.635 70.9446 49.4629C71.1573 49.2908 71.334 49.0785 71.4647 48.8381C71.5953 48.5977 71.6773 48.3339 71.706 48.0618C71.7347 47.7897 71.7095 47.5146 71.6319 47.2522C71.5543 46.9899 71.4258 46.7454 71.2537 46.5327C71.0816 46.32 70.8692 46.1433 70.6288 46.0126C70.3884 45.882 70.1246 45.8 69.8525 45.7713C69.5804 45.7426 69.3054 45.7677 69.043 45.8454L23.0775 59.4481C22.0234 59.7672 21.1389 60.4912 20.6179 61.4615C20.0969 62.4317 19.982 63.569 20.2983 64.6239L30.7465 99.298ZM66.986 81.8277L70.3745 74.8575C70.4297 74.7651 70.5182 74.6974 70.6217 74.6683C70.725 74.6341 70.8376 74.6421 70.935 74.6906L85.375 82.8226L74.871 85.9903L66.759 82.1248C66.8468 82.0356 66.923 81.9358 66.986 81.8277ZM48.0641 76.8106L48.3235 76.7964L70.4244 87.3315L37.1564 97.3657L48.0641 76.8106Z" fill="#B3B3B3"/>
</svg>
